<svg id="Layer_1" data-name="Layer 1" xmlns="http://www.w3.org/2000/svg" viewBox="0 0 1700.8 938.79"><defs><style>.cls-1{fill:#c2c2c2;}</style></defs><path class="cls-1" d="M1339.46.19c-1.19,1.52-1.72,2.32-2.36,3-9.32,9.81-16.54,21.11-23.44,32.66-11,18.49-16,38.8-18.93,59.89-2.75,19.87,1.17,38.43,9.08,56.5a252.57,252.57,0,0,0,26.29,46.17,40.61,40.61,0,0,0,4,4.79c1.75,1.77,3.84,3,6.46,1.94s4.73-3,4.75-6c0-4.15-.14-8.31-.48-12.45-2.48-30.3,1.57-59.72,12.82-87.93,9.56-24,26.83-41.76,47.91-56,10.94-7.41,22.73-13,35.77-15.72a25.65,25.65,0,0,1,13.22.76c7.73,2.38,14.66,6.32,21.29,10.85a198.35,198.35,0,0,1,39.77,36.6c6,7.09,11.37,14.65,17,22a26.79,26.79,0,0,1,1.53,2.71c-3.1-.55-5.56-.92-8-1.44-35.69-7.64-69.91-3.25-102.78,12.41-8.48,4-15.75,9.76-22.5,16.17a140.64,140.64,0,0,0-25.7,32.1c-5.7,10-11,20.2-16.43,30.35-1,2-1.63,4.18-2.67,6.15-2.21,4.15,1.26,9.79,7.53,8.74a15,15,0,0,0,5.94-2.87c23.73-17.13,49.35-30.12,78.3-35.78,39.15-7.67,73.75,2.64,104.59,27,4.09,3.23,7.52,7.38,10.9,11.41s4.94,9.16,5.17,14.64c.81,18.84-.73,37.4-6.61,55.41-4,12.29-8.36,24.48-12.65,36.68-.84,2.39-2.07,4.64-3.51,7.83a46.81,46.81,0,0,1-1.93-4.32,201.66,201.66,0,0,0-19.7-42.54,116.44,116.44,0,0,0-13.27-17.54c-9.23-10.24-19.89-18.94-31-27.1-11.8-8.66-25.07-13.16-39.39-15.16-19.26-2.68-38.61-2.16-58-1.73a44.05,44.05,0,0,0-8.54,1.14c-3,.67-5.84,1.94-6.53,5.51-.59,3,.85,5.59,4.48,7.71,1.64,1,3.42,1.73,5.15,2.55,24.3,11.39,46,26.4,64.18,46.25a121.14,121.14,0,0,1,32.4,74.62c1,13.17.72,26.17-2.07,39.11a33.87,33.87,0,0,1-13.18,20.48c-9.41,7.13-19.95,12.06-30.92,16.16-17.45,6.52-35.54,10.42-54,12.77-3.33.43-6.67.73-10,1.05a7.75,7.75,0,0,1-1.76-.38l2.94-3.9c5.47-7.28,11-14.51,16.4-21.86,13.06-17.81,20-38.06,23.49-59.65,1.1-6.94,1.8-13.94,2.51-20.94a62.37,62.37,0,0,0-2.67-24.16,217.2,217.2,0,0,0-32.8-66.81,43.42,43.42,0,0,0-4.61-5.51c-2.55-2.52-6-3.32-8.31-2-3,1.73-2.91,4.53-2.59,7.57,3.11,29.75,1.51,59.06-8.37,87.58-13,37.4-38.61,62.56-74.81,77.51a77.51,77.51,0,0,1-9.15,2.83,32.19,32.19,0,0,1-21.13-1.45,93.67,93.67,0,0,1-20.69-12c-20.82-15.58-38-34.62-52.89-55.84a15.79,15.79,0,0,1-1.09-2.14c7.68,1,15.07,2.24,22.51,2.91,13.7,1.21,27.51,2.29,41.17.29,8.63-1.27,17-4.25,25.5-6.47.61-.16,1.2-.44,1.81-.62,26.69-7.82,46.83-24.2,61.95-47.23a316.82,316.82,0,0,0,22.57-40.08,34.18,34.18,0,0,0,2.41-6.25c1.21-5-2.56-8.53-7.55-7.08a10.3,10.3,0,0,0-3.35,1.74c-21.45,16.86-45.62,28.13-71.94,34.91-12.77,3.28-25.78,5.05-39,3.9-28.7-2.5-54.25-12.72-76.08-31.79-9.28-8.1-13.28-18.18-13.4-30.51-.22-22.75,4.81-44.4,12.4-65.59,2.8-7.82,6-15.47,9.13-23.19.46-1.14,1.14-2.2,2-3.93.85,2.17,1.54,3.69,2.05,5.28a190.71,190.71,0,0,0,16.74,37.07c13.1,22.73,31.73,39.9,54,53.35,9.61,5.8,20.3,8.57,31.21,10.42a211.25,211.25,0,0,0,64.48,1.21,21,21,0,0,0,5.11-1.2c3.62-1.49,4.3-4.88,1.56-7.64a17.35,17.35,0,0,0-3.85-2.82c-2.65-1.49-5.36-2.86-8.08-4.19a210.8,210.8,0,0,1-62-45.36c-17.55-18.68-27.27-41.08-31.4-66.13a117.88,117.88,0,0,1,1.76-49,31.26,31.26,0,0,1,8.21-14.38,73,73,0,0,1,18.67-13.31c15.72-8.21,32.53-13.31,49.86-16.62,9.71-1.85,19.59-2.86,29.4-4.2A25.83,25.83,0,0,1,1339.46.19Z"/><path class="cls-1" d="M1225.26,545.12V605.2c-2-.8-3.77-1.43-5.48-2.17-24.68-10.71-50-19.57-76.24-25.56a272.06,272.06,0,0,0-83.41-5.67c-37,3.08-70.43,15.77-99,39.66-28,23.39-45.68,53.12-51.73,89.35-2.64,15.85-2.78,31.85-1.94,47.85.87,16.63,2.94,33.12,7.64,49.16,13.59,46.42,44,76.06,90.07,90a149,149,0,0,0,45.83,6.69c19.51-.28,39-.22,58.52-1,24.66-1,49-4.34,72.76-11.44,1.35-.41,2.67-.92,4.11-1.42.1-1.25.29-2.35.27-3.45-.32-20.14-.3-40.3-1.17-60.42-.46-10.82-2.2-21.61-3.86-32.34-2.36-15.37-9.17-28.83-18.61-41.06-1.07-1.39-2-2.87-3-4.34-.14-.2,0-.59.08-1.57,33.77-.59,67.59-.15,101.76-.31a16.58,16.58,0,0,1-.63,3c-7.66,17.68-9.61,36.33-9.58,55.35q.06,39.81,0,79.64A90.34,90.34,0,0,0,1256.1,905c.92,2.68,1.44,5.5,2.23,8.61-1.67.7-3.07,1.4-4.55,1.87-30.64,9.89-61.78,17.76-93.89,20.8-15.73,1.49-31.61,1.8-47.43,2-18.06.18-36.17.19-54.2-.79-48.85-2.64-95.06-14.83-136.55-41.46-44-28.25-70-68.76-78.69-120.26-8.18-48.33,1.82-93.44,26.85-134.86,30.87-51.06,75.88-83.91,134-98.35,17.88-4.45,36.05-7,54.38-8.78,27.94-2.7,55.91-2.32,83.86-.6a501.9,501.9,0,0,1,80.64,11.31C1223.38,544.55,1224,544.76,1225.26,545.12Z"/><path class="cls-1" d="M455.23,536.48c.22,5.21.53,9.32.56,13.42.18,29.43.23,58.85.47,88.28q.44,53.73,1.11,107.45c.27,24.63.39,49.26,1,73.87q.75,29.49,2.62,58.93c1.07,16.79,4.57,33.23,9.12,49.42.51,1.85.94,3.72,1.34,5.59a7.67,7.67,0,0,1-.33,2c-33.6.7-67.24,1.31-101.51.55.84-2.11,1.34-3.59,2-5a133.18,133.18,0,0,0,12.85-52.74c.84-21.73,1.41-43.47,2.08-65.2,0-.79-.13-1.58-.26-3-1.82-.07-3.66-.19-5.5-.19q-50.62,0-101.25,0-28.8,0-57.59,0c-2.28,0-4.25.22-6.12,2-24.05,22.28-48.33,44.32-71,68.08-15.5,16.25-29.89,33.35-40.7,53.18-1.27,2.33-2.73,3.45-5.6,3.44-31.83-.11-63.66-.07-95.49-.08-.75,0-1.49-.09-3.07-.2,1.29-1.08,1.91-1.71,2.63-2.19,22.13-14.8,42.57-31.74,62.42-49.38q91.11-81,181.91-162.25,101.1-90.3,202.15-180.66C450.86,540.14,452.67,538.66,455.23,536.48ZM264,767.93c3.49.07,6,.16,8.45.18q37.66.33,75.32.62c10.72.07,21.44.08,32.15-.05,6.63-.08,7.11-.68,7.3-7.14q.6-20.37,1.17-40.76.87-29.49,1.76-59a20,20,0,0,0-.15-4.31c-.55-2.92-2.85-3.82-5.35-2.13a24.4,24.4,0,0,0-2.9,2.5Q324.63,711,267.55,764.08C266.55,765,265.68,766.08,264,767.93Z"/><path class="cls-1" d="M550.92,935.34c.54-2,.86-3.53,1.34-5,5.59-17.22,9.93-34.77,12-52.74,1.29-11.57,1.42-23.3,1.5-35q.6-89.7.83-179.41c0-17.27-.08-34.57-1.15-51.79a288,288,0,0,0-11.83-64.94c-.95-3.18-1.69-6.41-2.7-10.26,2.87-.14,5.18-.34,7.5-.35,24.63-.08,49.26-.19,73.89-.17q71.5.07,143,.28c5.91,0,11.81.36,18.6.58-3.07,6.7-6.57,12.49-9.79,18.41-3.37,6.17-6.85,12.29-10.33,18.4-3.38,6-6.83,11.86-10.4,18.05-3.4-.94-6.48-1.7-9.5-2.65-11.89-3.72-23.73-7.62-35.65-11.24-18.49-5.62-37.52-7.76-56.75-8.4q-12.24-.42-24.46-.78c-1.75,0-3.5,0-5,0l-.55.5c-.1.12-.27.24-.28.37a22.91,22.91,0,0,0-.28,2.85q0,71,.06,142a9.71,9.71,0,0,0,.56,1.93l143.26.62c-1.36,4-29.68,44.33-35,50.08-7.36-1.67-15-3.38-22.58-5.12a503.84,503.84,0,0,0-57.6-9.93c-9.33-1-18.72-1.63-28.37-2.46V904a33.14,33.14,0,0,0,4.08.4c19.18-.35,38.39-.25,57.54-1.25,19.65-1,39.06-4.46,58.22-8.91,21.78-5.07,43.43-10.69,65.14-16.06,1.34-.33,2.7-.59,4.73-1-1,2.29-1.65,3.9-2.42,5.44-8.48,16.84-17,33.65-25.41,50.54-1.27,2.56-2.82,3.35-5.57,3.34q-85.17-.16-170.34-.22c-20.15,0-40.3-.39-60.45-.61C554.93,935.58,553.22,935.45,550.92,935.34Z"/><path class="cls-1" d="M1678.06,550.58v54.67c-1.76-1-2.94-1.59-4.07-2.29-12.8-7.89-25.74-15.58-40.26-20-22.1-6.65-44.5-8.73-67.2-3.34-13.3,3.16-25.25,9-35,18.79a52,52,0,0,0-12,17.8,37.72,37.72,0,0,0-2.44,11.61,130.94,130.94,0,0,0,.41,17.71,28.54,28.54,0,0,0,2.43,8.7c4.06,9.41,10.38,17.19,18,23.92a165.65,165.65,0,0,0,30,20.62c16.1,8.84,32.42,17.3,48.67,25.88,13.58,7.17,27,14.65,39.53,23.53A142,142,0,0,1,1680.4,770c13.46,15.13,19.78,32.88,20.35,53,1,35-13.4,62.45-40.79,83.55-17.28,13.32-37,21.32-58.1,26.24-22.42,5.22-45.19,6.45-68.12,6a262.26,262.26,0,0,1-63-8.67c-1.36-.37-2.7-.84-3.9-1.21V852.65c3,2.66,5.06,4.48,7.08,6.39,9.89,9.38,20.41,18,32.3,24.71,10.5,6,21.51,10.81,33.56,12.3,26.87,3.34,51.64-1.16,72-20.64,5.73-5.48,10.53-11.6,13.4-19.07q8.3-21.65-2.59-42.13c-6.23-11.76-15.45-20.79-26.72-27.56-12.47-7.49-25.19-14.56-37.9-21.62-19.7-10.95-39.39-21.93-58-34.7-10.31-7.06-20.16-14.69-28.73-23.85-13.81-14.76-20.7-32.25-21.68-52.41-2-41.85,17.17-72.62,49.8-96.44,15.36-11.21,33-17.25,51.27-21.87a126.35,126.35,0,0,1,42.34-3.25c11.29,1,22.7,1.42,33.83,3.37A271,271,0,0,1,1678.06,550.58Z"/><path class="cls-1" d="M1300.89,536.35c9.63-1.76,90.1-1.61,97.42.18-.77,2.57-1.46,5.16-2.34,7.68a219.79,219.79,0,0,0-11.47,51.33c-1.09,11.27-1.17,22.66-1.25,34-.32,48.12-.67,96.24-.61,144.36,0,29.25.87,58.49,1.24,87.74.19,14.82,3.24,29.2,6.48,43.53,2,8.87,4.73,17.57,7.13,26.35.41,1.51.8,3,1.3,4.9h-98.24c.61-2.18,1.11-4.24,1.79-6.25,4.43-13.19,8.51-26.49,10.44-40.3a216,216,0,0,0,2.36-23.35c.61-20.77,1-41.55,1-62.33q.16-88.5-.08-177c0-13.73-.34-27.52-1.64-41.18-1.42-15-5.8-29.42-11.27-43.47C1302.41,540.52,1301.68,538.47,1300.89,536.35Z"/></svg>