<svg xmlns="http://www.w3.org/2000/svg" viewBox="0 0 40.22 22.93"><defs><style>.cls-1{fill:#c2c2c2;}</style></defs><title>Artboard 1</title><g id="Layer_2" data-name="Layer 2"><path class="cls-1" d="M13.84,12.89A5.74,5.74,0,0,0,9.69,7.94a5,5,0,0,0-2.86,0A3.83,3.83,0,0,0,5.17,9.34L5,0,0,1v.56l1.51-.17.19,17.72L0,19.19l0,.54,4.85-.06,0-1.82s.94,1.83,1.82,2a18.54,18.54,0,0,0,3.29,0,5.4,5.4,0,0,0,3.79-4.26A13.41,13.41,0,0,0,13.84,12.89Zm-5,6.44a2.18,2.18,0,0,1-2-.13,3.89,3.89,0,0,1-1.66-2.84c0-1-.1-1.43,0-3.7.07-2,1.2-4.22,2.64-4.22a2.18,2.18,0,0,1,1.86.8c.53.53.55,3.29.55,4.45S10.6,18.53,8.84,19.33Z"/></g><g id="Layer_3" data-name="Layer 3"><path class="cls-1" d="M22.26,11.37l.54,0,0-3.24h-.71s0,.37,0,.42a7.65,7.65,0,0,0-3.34-.82A4.22,4.22,0,0,0,15,10a1.3,1.3,0,0,0-.22.55l-.06,1.51a2.11,2.11,0,0,0,.38,1.32,5.41,5.41,0,0,0,3.15,1.89,6.29,6.29,0,0,1,2.43,1.07,1.4,1.4,0,0,1,.49,1.09V18a1.28,1.28,0,0,1-.77,1.19,4.05,4.05,0,0,1-1,.18,11.07,11.07,0,0,1-1.44,0s-1.79-.15-2.88-3.71h-.51l0,4.14h.55l.2-.67.49.29a3.44,3.44,0,0,0,1.47.34l3.54,0a2.92,2.92,0,0,0,1.16-.5l.56-.47A2.39,2.39,0,0,0,23.47,17s0-1.59,0-2.35S22.25,13.2,21,12.78c-1-.34-1.16-.36-1.89-.61-.39-.14-.87-.38-1.27-.55l-.66-.41a1,1,0,0,1-.41-1l0-.46c.15-.31.72-1.13,1.3-1.14l1,0A2.91,2.91,0,0,1,21,9.34h0l.68.81a6,6,0,0,1,.38.63Z"/></g><g id="Layer_4" data-name="Layer 4"><path class="cls-1" d="M36.52,18.81s0,.55-.91.54-.94-.54-.94-.54,0-7.71,0-8.3a2.92,2.92,0,0,0-2.94-2.58c-2.25,0-4,.06-4,.06a3.14,3.14,0,0,0-2.52,2.46c-.45,2.17,1.88,1.7,1.88,1.7s1.54.06,1.41-1c-.08-.65-.17-1.28-.17-1.28s.12-1,.57-1.16a2.11,2.11,0,0,1,1.38-.14A1.29,1.29,0,0,1,31,9l.12.29.09,2.81c0,.6-.42,1-1.22,1.22s-5.43,1.08-5.62,3c0,.43,0,1.87,0,1.87a2.22,2.22,0,0,0,2.14,1.59H30s1.16,0,1.38-1.48l.36.55s.49.77,1,.85a30,30,0,0,0,3.7.07,1.86,1.86,0,0,0,.35-.59C36.91,18.68,36.52,18.81,36.52,18.81ZM30.31,19c-.88.06-1.46,0-1.46,0s-.9.11-.88-1,0-2,0-2.32a1.06,1.06,0,0,1,.8-1.16c.64-.28,1.93-.61,2.33-1.14v4.43S31.19,19,30.31,19Z"/></g></svg>