<svg id="Layer_1" data-name="Layer 1" xmlns="http://www.w3.org/2000/svg" viewBox="0 0 112.03 53.32"><defs><style>.cls-1{fill:#c2c2c2;}</style></defs><title>gsa</title><path class="cls-1" d="M40,34.45a4.91,4.91,0,0,1,0-.87c.58-2.07-1.49-5.37,1.43-6.09,2.38-.59,2.11,2.81,3.09,4.39,2.88,4.67,8.28,7.25,12.69,5.9,2.17-.66,4-1.71,3.77-4.51-.23-2.53-1.56-4-4.07-4.2-3.21-.26-6.08-1.63-9.06-2.63-5.58-1.87-8.39-6-7.84-11.2S45,5.42,50.13,5.15C53.88,5,57.8,4.2,61.41,6.2a3.33,3.33,0,0,0,1.88.48c1.52-.2,3.46-3.24,4.39-.27S69,13,67.33,15.64s-2.92.08-3.72-1.44C61.45,10,58.59,7.28,53.4,8c-2.65.37-4.59,1.78-5.08,4.08-.57,2.66,1.82,3.47,4,4.2,3.3,1.11,6.86.89,10.11,2.42,6.12,2.88,8.46,6.49,7.58,12.48C69.26,36,63.7,40.73,58.22,41c-3.48.18-7,.3-10.33-1.1-.76-.32-1.83-.95-2.33-.67C38.16,43.42,40.38,37.37,40,34.45Z"/><path class="cls-1" d="M30.37,4.52l.74,1.41c1.13,2.13,2.69,3.32,5.22,2.42,2.27-.81,3-2.53,2.58-4.74C38.42,1.12,36.72.09,34.23,0,31.33-.05,28.49-.15,27,3c-.85,1.8-2.44,2-4.2,2-2.83,0-5.66-.14-8.48,0a13,13,0,0,0-11.69,8C.53,17.64,3.14,21,6.4,24A8.25,8.25,0,0,1,7.46,25.5c-7.24,4.55-7.3,7.57,0,12.06C1.06,40.73-.35,42,.07,44.91c.5,3.51,3.13,5.64,6.12,6.58a39.57,39.57,0,0,0,23.5.09c4.68-1.39,8.66-7.28,8.29-11.34-.4-4.39-3.7-6.72-9.62-8.42-5.23-1.5-10.67.39-15.75-1.67-.86-.35-2.27,0-2.1-1.48.13-1.08,1.2-1.54,2.26-1.56,3-.05,6-.06,9-.06,5.07,0,9.28-1.93,11.38-6.58,2-4.4,1.38-8.77-2.46-12.27C29.61,7.21,28.47,6.11,30.37,4.52ZM12.92,40.32c3.77-.46,7.59-.77,11.33.62,2,.76,3.64,1.77,3.68,4.12,0,2.14-1.44,3.35-3.19,4-2,.79-4.1,1.27-6.31,1.93a70.77,70.77,0,0,1-6.93-2.37c-2-.91-2.75-2.77-2.44-5S11.18,40.54,12.92,40.32Zm5.28-15.51C13.37,23.88,12.76,20.11,13,16c.3-3.5-.51-7.77,5.05-7.9,3.79-.09,6,3,6,8.11C23.93,20.58,20.91,25.35,18.19,24.82Z"/><path class="cls-1" d="M112,33.23c-.1-.85-.19-1.72-1.21-1.91s-1.52.46-1.68,1.37c-.28,1.5-.48,3.38-2.55,2.83-1.74-.46-1.52-2.36-1.52-3.85,0-5.33,0-10.67,0-16,0-3.83-.82-7.94-4.68-9.18C93.29,4.22,86,3.62,79,7.1a9.06,9.06,0,0,0-3,2.57,6,6,0,0,0,1.93,8.64c3.39,1.94,5.84.23,7.53-2.54s-.16-5-2.46-7.68c2.61,0,4.44-.29,6.14.06,3.11.64,4.75,2.65,4.89,6s-1,4.35-4.36,5.18c-5.35,1.33-10.68,2.91-15,7.29-5.2,5.31-1.28,13.3,4.13,14.08,4.77.69,10,1.89,14.23-2.2,1.08-1,2-1.67,3.18.05,2.72,4.11,7.07,2.88,10.49,2.18A6.52,6.52,0,0,0,112,33.23ZM92.85,34a4.44,4.44,0,0,1-4.66,3C85.88,37,85,35.41,84.39,33.66c-1.67-4.61,2.06-11,6.88-11.44,4.19-.38,2.14,3.14,2.55,4.28A13.36,13.36,0,0,1,92.85,34Z"/></svg>