<svg id="Layer_1" data-name="Layer 1" xmlns="http://www.w3.org/2000/svg" viewBox="0 0 223.96 239.91"><defs><style>.cls-1{fill:#c2c2c2;}</style></defs><title>hmc</title><path class="cls-1" d="M224,121c-1.24,6.33-2,12.8-3.79,19-12.59,42.42-41.09,70.72-80.45,88.79-19.37,8.89-40.09,11.95-61.37,11-1.8-.08-3.59-.37-6.08-.65l18.08-16.91c-3-.87-5-1.51-7-2-51.55-13.71-84.87-59.29-83.3-114C1.47,56.83,39.34,12.78,89.31,2.37,93.51,1.49,97.74.78,102,0h19a30.4,30.4,0,0,0,3.83.94,111.4,111.4,0,0,1,95.15,82.15c1.74,6.53,2.7,13.27,4,19.91ZM98,103.39l17.67,35.22,1.67-.32,16.84-34.74,1,.19L139.5,138h16.57c-6-.59-7.75-4.17-8.43-9.53C146,115.63,143.94,102.82,142,90c-.37-2.45-1.05-4.85-1.59-7.27l-1.54-.15-20.21,42.08c-7.48-14.35-13.49-28.69-21.61-42a11.05,11.05,0,0,0-1.88,4.65q-3.19,21-6.29,41.95c-.55,3.73-.73,7.65-5.59,8.88H98.61c-1.42-1.65-4.39-3.55-4.26-5.21C95.08,123.52,96.55,114.16,98,103.39Zm-81-19.14C23.3,85,23.09,89.46,23,94c-.12,12-.12,24-.08,36,0,3.83-.31,7.26-5.12,8h20.6c-1.63-1.38-5-2.86-5.16-4.61-.62-7.22-.26-14.53-.26-22H60.17c0,6.47,0,12.75,0,19,0,3.5-.15,7-4.83,7.72H76.94c-6.84-2.16-6.9-2.16-7-9.81q-.12-16.23-.06-32.47c0-4.5-1.37-9.7,6.61-11.27H54.43c2,1.43,5.16,2.54,5.29,3.94.56,6,.24,12.1.24,18.23H32.6c0-4.27,0-8.38,0-12.49s-.65-8.4,4.84-10Zm188.85,15.84c.35-5.07.82-8.69.7-12.29a4.15,4.15,0,0,0-2.72-2.95c-6.75-.79-13.6-2-20.32-1.58-15.63,1.07-26,11.32-26.68,25.27-.8,15.9,7.93,27.32,23.75,30.13,5.33.95,10.95.74,16.4.45,8.26-.44,11.33-5.33,9.07-13.6-5,8-6.51,9.1-13.1,9.42-16.71.8-28.22-12.86-25.51-30.3,1.58-10.13,6.82-16.18,15.16-17.46C194.16,85.41,200.5,88.63,205.79,100.09Z"/></svg>