<svg id="Layer_1" data-name="Layer 1" xmlns="http://www.w3.org/2000/svg" viewBox="0 0 43.08 43.59"><defs><style>.cls-1{fill:#c2c2c2;}</style></defs><title>ib</title><path class="cls-1" d="M43.08,21.78A21.86,21.86,0,0,1,0,27a29.72,29.72,0,0,0,12-2.67V15.87a1.64,1.64,0,0,0-.7-1.48,4.79,4.79,0,0,0-2.49-.47v-.78q2.38-.08,4.36-.28a20.58,20.58,0,0,0,3.42-.6v9.5h0v5.13q0,1.2,0,2.37t-.12,2.17c-.05.67-.12,1.24-.19,1.71A21.11,21.11,0,0,0,20.57,35a15,15,0,0,0,4.44.74,11,11,0,0,0,3.39-.53,9,9,0,0,0,2.9-1.53,7.79,7.79,0,0,0,2-2.49,7.07,7.07,0,0,0,.78-3.34,8.28,8.28,0,0,0-.59-3.15A7.4,7.4,0,0,0,31.9,22.2a7.72,7.72,0,0,0-2.5-1.65,8.12,8.12,0,0,0-3.16-.6,8.28,8.28,0,0,0-2.63.45,11.94,11.94,0,0,0-2.44,1.12V17.84A29.58,29.58,0,0,0,28.95,2.69a21.27,21.27,0,0,0-28.21,12A21.71,21.71,0,0,1,29.15,1.48h0A21.81,21.81,0,0,1,43.08,21.78ZM21.84,32.95a3.22,3.22,0,0,0,3,1.53,3.23,3.23,0,0,0,3-1.53,10,10,0,0,0,.89-4.84,10,10,0,0,0-.89-4.84,3.23,3.23,0,0,0-3-1.53,3.23,3.23,0,0,0-3,1.53,10,10,0,0,0-.9,4.84A10,10,0,0,0,21.84,32.95ZM16.14,9.81a3,3,0,0,0,.91-2.22,3,3,0,0,0-.91-2.21,3.17,3.17,0,0,0-4.4,0,3,3,0,0,0-.91,2.21,3,3,0,0,0,.91,2.22,3.17,3.17,0,0,0,4.4,0Z"/></svg>