<?xml version="1.0" encoding="utf-8"?>
<!-- Generator: Adobe Illustrator 21.0.1, SVG Export Plug-In . SVG Version: 6.00 Build 0)  -->
<svg version="1.1" id="Layer_1" xmlns="http://www.w3.org/2000/svg" xmlns:xlink="http://www.w3.org/1999/xlink" x="0px" y="0px"
	 viewBox="0 0 34 34" style="enable-background:new 0 0 34 34;" xml:space="preserve">
<style type="text/css">
	.st0{fill:#8E8E8E;}
	.st1{fill:#FFFFFF;}
</style>
<title>Artboard 1</title>
<rect class="st0" width="34" height="34"/>
<path class="st1" d="M22.2,8.5H11.8c-1.8,0-3.3,1.5-3.3,3.3l0,0v10.4c0,1.8,1.5,3.3,3.3,3.3h10.4c1.8,0,3.3-1.5,3.3-3.3v0V11.8
	C25.5,10,24,8.5,22.2,8.5C22.2,8.5,22.2,8.5,22.2,8.5z M23.1,10.5h0.4v2.9h-2.9v-2.9L23.1,10.5z M14.6,15.3c1-1.3,2.8-1.7,4.2-0.7
	s1.7,2.8,0.7,4.2s-2.8,1.7-4.2,0.7C14.5,18.9,14,18,14,17C14,16.4,14.2,15.8,14.6,15.3L14.6,15.3z M23.8,22.3c0,0.9-0.7,1.6-1.6,1.6
	H11.8c-0.9,0-1.6-0.7-1.6-1.6v-7h2.5c-1,2.4,0.2,5.1,2.6,6.1s5.1-0.2,6.1-2.6c0.5-1.1,0.5-2.4,0-3.5h2.5L23.8,22.3z"/>
</svg>
