<?xml version="1.0" encoding="utf-8"?>
<!-- Generator: Adobe Illustrator 21.0.1, SVG Export Plug-In . SVG Version: 6.00 Build 0)  -->
<svg version="1.1" id="Layer_1" xmlns="http://www.w3.org/2000/svg" xmlns:xlink="http://www.w3.org/1999/xlink" x="0px" y="0px"
	 viewBox="0 0 34 34" style="enable-background:new 0 0 34 34;" xml:space="preserve">
<style type="text/css">
	.st0{fill:#8E8E8E;}
	.st1{fill:#FFFFFF;}
</style>
<title>Artboard 1</title>
<rect class="st0" width="34" height="34"/>
<path class="st1" d="M12.2,24.1H8.9V13.5h3.3L12.2,24.1z M10.5,12.2L10.5,12.2c-1,0.1-1.9-0.7-2-1.7c0-0.1,0-0.1,0-0.2
	c0-1,0.8-1.9,1.9-1.8c0,0,0.1,0,0.1,0c1-0.1,1.9,0.6,2,1.6c0.1,1-0.6,1.9-1.6,2C10.7,12.2,10.6,12.2,10.5,12.2z M25.5,24.1h-3.8
	v-5.5c0-1.4-0.6-2.4-1.9-2.4c-0.8,0-1.5,0.5-1.8,1.3C18,17.8,18,18.1,18,18.4v5.7h-3.7c0,0,0-9.7,0-10.6H18v1.7
	c0.6-1.2,2-1.9,3.3-1.8c2.4,0,4.2,1.5,4.2,4.8L25.5,24.1z"/>
</svg>
