<?xml version="1.0" encoding="utf-8"?>
<!-- Generator: Adobe Illustrator 21.0.1, SVG Export Plug-In . SVG Version: 6.00 Build 0)  -->
<svg version="1.1" id="Layer_1" xmlns="http://www.w3.org/2000/svg" xmlns:xlink="http://www.w3.org/1999/xlink" x="0px" y="0px"
	 viewBox="0 0 34 34" style="enable-background:new 0 0 34 34;" xml:space="preserve">
<style type="text/css">
	.st0{fill:#8E8E8E;}
	.st1{fill:#FFFFFF;}
</style>
<title>Artboard 1</title>
<rect class="st0" width="34" height="34"/>
<path class="st1" d="M20.5,11.3v3.2c-0.1,0.1-0.2,0.2-0.3,0.2c-0.1,0.1-0.2,0.1-0.2,0.1c-0.1,0-0.1,0-0.2-0.1c0-0.1-0.1-0.1-0.1-0.2
	v-3.3h-0.9v3.6c0,0.2,0,0.4,0.1,0.6c0.1,0.1,0.3,0.2,0.5,0.2c0.2,0,0.4,0,0.5-0.1c0.2-0.1,0.4-0.2,0.5-0.4v0.5h0.9v-4.3H20.5z
	 M17.8,11.5c-0.2-0.2-0.6-0.3-0.9-0.3c-0.4,0-0.7,0.1-1,0.3c-0.2,0.2-0.4,0.5-0.4,0.8v2.2c0,0.3,0.1,0.6,0.3,0.9
	c0.5,0.4,1.3,0.4,1.9,0c0.2-0.2,0.4-0.5,0.3-0.9v-2.2C18.1,12,18,11.7,17.8,11.5L17.8,11.5z M17.3,14.6c0,0.1,0,0.2-0.1,0.3
	c-0.1,0.1-0.2,0.1-0.3,0.1c-0.1,0-0.2,0-0.3-0.1c-0.1-0.1-0.1-0.2-0.1-0.3v-2.3c0-0.1,0-0.2,0.1-0.2c0.1-0.1,0.2-0.1,0.3-0.1
	c0.1,0,0.2,0,0.3,0.1c0.1,0.1,0.1,0.1,0.1,0.2V14.6z M14.6,9.8L14,12.1h-0.1l-0.6-2.3h-1l1.2,3.5v2.3h1v-2.4l1.1-3.4L14.6,9.8z
	 M21.4,20c0.1,0.1,0.1,0.2,0.1,0.3v0.4h-0.7v-0.4c0-0.1,0-0.2,0.1-0.3c0.1-0.1,0.2-0.1,0.3-0.1C21.2,19.8,21.3,19.9,21.4,20L21.4,20
	z M18.7,20c-0.1-0.1-0.1-0.1-0.2-0.1c-0.1,0-0.1,0-0.2,0c-0.1,0-0.1,0.1-0.2,0.1v2.4c0.1,0.1,0.1,0.1,0.2,0.1c0.1,0,0.1,0,0.2,0
	c0.1,0,0.2,0,0.2-0.1c0.1-0.1,0.1-0.2,0.1-0.3v-2C18.8,20.1,18.7,20,18.7,20L18.7,20z M18.7,20c-0.1-0.1-0.1-0.1-0.2-0.1
	c-0.1,0-0.1,0-0.2,0c-0.1,0-0.1,0.1-0.2,0.1v2.4c0.1,0.1,0.1,0.1,0.2,0.1c0.1,0,0.1,0,0.2,0c0.1,0,0.2,0,0.2-0.1
	c0.1-0.1,0.1-0.2,0.1-0.3v-2C18.8,20.1,18.7,20,18.7,20L18.7,20z M23.1,17H10.9c-1.3,0-2.4,1.1-2.4,2.4v2.5c0,1.3,1.1,2.4,2.4,2.4
	h12.2c1.3,0,2.4-1.1,2.4-2.4v-2.5C25.5,18,24.4,16.9,23.1,17L23.1,17z M14.2,18.7h-0.9v4.5h-0.9v-4.5h-0.9v-0.8h2.7L14.2,18.7z
	 M16.8,23.1H16v-0.4c-0.1,0.1-0.3,0.3-0.4,0.4c-0.1,0.1-0.3,0.1-0.4,0.1c-0.2,0-0.3-0.1-0.4-0.2c-0.1-0.2-0.1-0.3-0.1-0.5v-3.2h0.8
	v3c0,0.1,0,0.1,0.1,0.2c0,0,0.1,0.1,0.1,0.1c0.1,0,0.2,0,0.2-0.1c0.1-0.1,0.2-0.1,0.3-0.2v-3h0.8L16.8,23.1z M19.6,22.3
	c0,0.2-0.1,0.4-0.2,0.6c-0.1,0.2-0.3,0.2-0.5,0.2c-0.1,0-0.3,0-0.4-0.1c-0.1-0.1-0.2-0.2-0.3-0.3v0.3h-0.8v-5.3h0.8v1.7
	c0.1-0.1,0.2-0.2,0.3-0.3c0.1-0.1,0.2-0.1,0.4-0.1c0.2,0,0.4,0.1,0.6,0.2c0.1,0.2,0.2,0.5,0.2,0.7L19.6,22.3z M22.3,21.3h-1.5V22
	c0,0.1,0,0.3,0.1,0.4c0.1,0.1,0.2,0.1,0.3,0.1c0.1,0,0.2,0,0.3-0.1c0.1-0.1,0.1-0.3,0.1-0.4v-0.2h0.8V22c0,0.3-0.1,0.7-0.3,0.9
	c-0.2,0.2-0.6,0.3-0.9,0.3c-0.3,0-0.6-0.1-0.8-0.3C20.1,22.6,20,22.3,20,22v-1.7c0-0.3,0.1-0.6,0.3-0.8c0.2-0.2,0.5-0.3,0.9-0.3
	c0.3,0,0.6,0.1,0.8,0.3c0.2,0.2,0.3,0.5,0.3,0.8L22.3,21.3z M18.4,19.9c-0.1,0-0.1,0-0.2,0c-0.1,0-0.1,0.1-0.2,0.1v2.4
	c0.1,0.1,0.1,0.1,0.2,0.1c0.1,0,0.1,0,0.2,0c0.1,0,0.2,0,0.2-0.1c0.1-0.1,0.1-0.2,0.1-0.3v-2c0-0.1,0-0.2-0.1-0.3
	C18.6,19.8,18.5,19.8,18.4,19.9L18.4,19.9z M18.7,20c-0.1-0.1-0.1-0.1-0.2-0.1c-0.1,0-0.1,0-0.2,0c-0.1,0-0.1,0.1-0.2,0.1v2.4
	c0.1,0.1,0.1,0.1,0.2,0.1c0.1,0,0.1,0,0.2,0c0.1,0,0.2,0,0.2-0.1c0.1-0.1,0.1-0.2,0.1-0.3v-2C18.8,20.1,18.7,20,18.7,20L18.7,20z
	 M18.7,20c-0.1-0.1-0.1-0.1-0.2-0.1c-0.1,0-0.1,0-0.2,0c-0.1,0-0.1,0.1-0.2,0.1v2.4c0.1,0.1,0.1,0.1,0.2,0.1c0.1,0,0.1,0,0.2,0
	c0.1,0,0.2,0,0.2-0.1c0.1-0.1,0.1-0.2,0.1-0.3v-2C18.8,20.1,18.7,20,18.7,20L18.7,20z"/>
</svg>
